<?xml version="1.0" encoding="UTF-8" standalone="no"?>
<!-- Created with Inkscape (http://www.inkscape.org/) -->

<svg
   width="700mm"
   height="700mm"
   viewBox="0 0 700 700"
   version="1.1"
   id="svg1"
   inkscape:version="1.3 (0e150ed6c4, 2023-07-21)"
   sodipodi:docname="logo.svg"
   inkscape:export-filename="logo final.png"
   inkscape:export-xdpi="96"
   inkscape:export-ydpi="96"
   xmlns:inkscape="http://www.inkscape.org/namespaces/inkscape"
   xmlns:sodipodi="http://sodipodi.sourceforge.net/DTD/sodipodi-0.dtd"
   xmlns="http://www.w3.org/2000/svg"
   xmlns:svg="http://www.w3.org/2000/svg">
  <sodipodi:namedview
     id="namedview1"
     pagecolor="#ffffff"
     bordercolor="#000000"
     borderopacity="0.25"
     inkscape:showpageshadow="2"
     inkscape:pageopacity="0.0"
     inkscape:pagecheckerboard="0"
     inkscape:deskcolor="#d1d1d1"
     inkscape:document-units="mm"
     inkscape:zoom="0.23275846"
     inkscape:cx="1890.3717"
     inkscape:cy="1376.9639"
     inkscape:window-width="1920"
     inkscape:window-height="974"
     inkscape:window-x="-11"
     inkscape:window-y="-11"
     inkscape:window-maximized="1"
     inkscape:current-layer="layer1" />
  <defs
     id="defs1">
    <rect
       x="30.074095"
       y="962.37103"
       width="2564.8906"
       height="790.51906"
       id="rect1" />
  </defs>
  <g
     inkscape:label="Calque 1"
     inkscape:groupmode="layer"
     id="layer1">
    <path
       style="fill:#88b6ff;stroke:#007fc6;stroke-width:23.408;stroke-linecap:round;stroke-linejoin:round;fill-opacity:1;stroke-opacity:1"
       id="path1"
       sodipodi:type="arc"
       sodipodi:cx="350.68094"
       sodipodi:cy="351.81769"
       sodipodi:rx="334.76672"
       sodipodi:ry="334.76672"
       sodipodi:start="0"
       sodipodi:end="6.2734884"
       sodipodi:open="true"
       sodipodi:arc-type="arc"
       d="M 685.44766,351.81769 A 334.76672,334.76672 0 0 1 351.49249,686.58343 334.76672,334.76672 0 0 1 15.91815,353.44078 334.76672,334.76672 0 0 1 348.24631,17.059818 334.76672,334.76672 0 0 1 685.43192,348.57154" />
    <path
       style="fill:#007fc6;fill-opacity:1;stroke:none;stroke-width:23.408;stroke-linecap:round;stroke-linejoin:round"
       d="M 220.52546,47.742625 350.11259,334.19838 98.895435,139.81769 c 0,0 96.621985,-86.391421 121.630025,-92.075065 z"
       id="path3" />
    <path
       style="fill:#007fc6;fill-opacity:1;stroke:none;stroke-width:23.408;stroke-linecap:round;stroke-linejoin:round"
       d="M 489.0663,59.250366 353.08544,339.26155 353.19348,21.623556 c 0,0 116.07938,21.319582 135.87282,37.62681 z m -33.2379,98.754984"
       id="path3-6"
       sodipodi:nodetypes="cccc" />
    <path
       style="fill:#007fc6;fill-opacity:1;stroke:none;stroke-width:23.408;stroke-linecap:round;stroke-linejoin:round"
       d="M 660.30763,255.92101 358.35938,331.58019 601.86255,127.61912 c 0,0 58.22786,102.65703 58.44508,128.30189 z m -97.03589,37.96498"
       id="path4"
       sodipodi:nodetypes="cccc" />
    <path
       style="fill:#007fc6;fill-opacity:1;stroke:none;stroke-width:23.408;stroke-linecap:round;stroke-linejoin:round"
       d="M 220.52546,47.742625 350.11259,334.19838 98.895435,139.81769 c 0,0 96.621985,-86.391421 121.630025,-92.075065 z"
       id="path5" />
    <path
       style="fill:#007fc6;fill-opacity:1;stroke:none;stroke-width:23.408;stroke-linecap:round;stroke-linejoin:round"
       d="M 489.0663,59.250366 353.08544,339.26155 353.19348,21.623556 c 0,0 116.07938,21.319582 135.87282,37.62681 z m -33.2379,98.754984"
       id="path6"
       sodipodi:nodetypes="cccc" />
    <path
       style="fill:#007fc6;fill-opacity:1;stroke:none;stroke-width:23.408;stroke-linecap:round;stroke-linejoin:round"
       d="M 660.30763,255.92101 358.35938,331.58019 601.86255,127.61912 c 0,0 58.22786,102.65703 58.44508,128.30189 z m -97.03589,37.96498"
       id="path7"
       sodipodi:nodetypes="cccc" />
    <path
       style="fill:#007fc6;fill-opacity:1;stroke:none;stroke-width:23.408;stroke-linecap:round;stroke-linejoin:round"
       d="M 394.81581,672.3688 356.41645,325.22216 507.46658,638.35855 c 0,0 -87.07761,35.93884 -112.65077,34.01025 z"
       id="path8"
       sodipodi:nodetypes="cccc" />
    <path
       style="fill:#007fc6;fill-opacity:1;stroke:none;stroke-width:23.408;stroke-linecap:round;stroke-linejoin:round"
       d="M 628.01871,528.62892 346.90393,325.93061 670.46208,407.42144 c 0,0 -23.24833,109.37158 -42.44337,121.20748 z"
       id="path8-7"
       sodipodi:nodetypes="cccc" />
    <path
       style="fill:#007fc6;fill-opacity:1;stroke:none;stroke-width:23.408;stroke-linecap:round;stroke-linejoin:round"
       d="M 127.91613,588.01621 350.51857,327.46538 233.05527,654.87326 c 0,0 -91.02206,-45.44645 -105.13914,-66.85705 z"
       id="path9"
       sodipodi:nodetypes="cccc" />
    <path
       style="fill:#007fc6;fill-opacity:1;stroke:none;stroke-width:23.408;stroke-linecap:round;stroke-linejoin:round"
       d="M 22.144906,331.46876 343.21743,333.25424 49.332595,476.97306 c 0,0 -34.528009,-120.93143 -27.187689,-145.5043 z"
       id="path10"
       sodipodi:nodetypes="cccc" />
  </g>
  <text
     xml:space="preserve"
     style="font-size:228.892px;font-family:Marola;-inkscape-font-specification:Marola;fill:#ffb628;fill-opacity:1;stroke:none;stroke-width:23.408;stroke-linecap:round;stroke-linejoin:round"
     x="65.989517"
     y="217.68221"
     id="text2"
     transform="scale(0.68358372,1.4628786)"><tspan
       sodipodi:role="line"
       id="tspan2"
       style="fill:#ffb628;fill-opacity:1;stroke:none;stroke-width:23.408"
       x="65.989517"
       y="217.68221">PROJECT</tspan></text>
  <text
     xml:space="preserve"
     style="font-size:191.838px;font-family:Marola;-inkscape-font-specification:Marola;fill:#ff6428;fill-opacity:1;stroke:none;stroke-width:23.4081;stroke-linecap:round;stroke-linejoin:round"
     x="72.29747"
     y="439.43988"
     id="text2-6"
     transform="scale(0.69074813,1.4477057)"><tspan
       sodipodi:role="line"
       id="tspan2-2"
       style="fill:#ff6428;fill-opacity:1;stroke:none;stroke-width:23.4081"
       x="72.29747"
       y="439.43988">MADNESS</tspan></text>
  <text
     xml:space="preserve"
     style="font-size:159.116px;font-family:Marola;-inkscape-font-specification:Marola;fill:#ff9428;fill-opacity:1;stroke:none;stroke-width:23.408;stroke-linecap:round;stroke-linejoin:round"
     x="103.23635"
     y="392.66232"
     id="text3"
     transform="scale(0.9185924,1.0886221)"><tspan
       sodipodi:role="line"
       id="tspan3"
       style="fill:#ff9428;fill-opacity:1;stroke-width:23.408"
       x="103.23635"
       y="392.66232">GALAXY</tspan></text>
</svg>
